<svg width="285" height="142" viewBox="0 0 285 142" fill="none" xmlns="http://www.w3.org/2000/svg">
<path d="M258.889 140.871C260.647 125.404 264.574 119.516 280.669 117.629L259.17 117.372L258.889 140.871Z" fill="#FF1543"/>
<rect x="4.02881" y="23.5" width="278" height="94" fill="#FF1543"/>
<rect x="27.0288" y="0.5" width="232" height="140" fill="#FF1543"/>
<path d="M27.5288 0C25.9561 15.4869 22.0999 21.4207 6.02881 23.5H27.5288V0Z" fill="#FF1543"/>
<path d="M282.552 23.974C267.062 22.4355 261.12 18.5925 259.005 2.52603L259.053 24.026L282.552 23.974Z" fill="#FF1543"/>
<path d="M4.00006 117.531C19.4911 119.063 25.4353 122.903 27.5575 138.968L27.5 117.469L4.00006 117.531Z" fill="#FF1543"/>
<path d="M11.46 46.4992L3.20996 49.9633L3.20996 43.0351L11.46 46.4992Z" fill="white"/>
<path d="M11.46 53.4992L3.20996 56.9633L3.20996 50.0351L11.46 53.4992Z" fill="white"/>
<path d="M11.46 59.4992L3.20996 62.9633L3.20996 56.0351L11.46 59.4992Z" fill="white"/>
<path d="M11.46 66.4992L3.20996 69.9633L3.20996 63.0351L11.46 66.4992Z" fill="white"/>
<path d="M11.46 73.4992L3.20996 76.9633L3.20996 70.0351L11.46 73.4992Z" fill="white"/>
<path d="M11.46 80.4992L3.20996 83.9633L3.20996 77.0351L11.46 80.4992Z" fill="white"/>
<path d="M11.46 86.4992L3.20996 89.9633L3.20996 83.0351L11.46 86.4992Z" fill="white"/>
<path d="M11.46 93.4992L3.20996 96.9633L3.20996 90.0351L11.46 93.4992Z" fill="white"/>
<path d="M274 96L282.25 92.5359V99.4641L274 96Z" fill="white"/>
<path d="M274 89L282.25 85.5359V92.4641L274 89Z" fill="white"/>
<path d="M274 83L282.25 79.5359V86.4641L274 83Z" fill="white"/>
<path d="M274 76L282.25 72.5359V79.4641L274 76Z" fill="white"/>
<path d="M274 69L282.25 65.5359V72.4641L274 69Z" fill="white"/>
<path d="M274 62L282.25 58.5359V65.4641L274 62Z" fill="white"/>
<path d="M274 56L282.25 52.5359V59.4641L274 56Z" fill="white"/>
<path d="M274 49L282.25 45.5359V52.4641L274 49Z" fill="white"/>
<rect x="25" y="24" width="235" height="94" rx="2" fill="#FFFDD4"/>
</svg>
